<svg version="1.1" id="Layer_1" xmlns="http://www.w3.org/2000/svg" xmlns:xlink="http://www.w3.org/1999/xlink" x="0px" y="0px"
	 width="100%" viewBox="0 0 2000 1500" enable-background="new 0 0 2000 1500" xml:space="preserve">
<path fill="#000000" opacity="1.000000" stroke="none" 
	d="
M1408.000000,1501.000000 
	C938.666809,1501.000000 469.833618,1501.000000 1.000314,1501.000000 
	C1.000210,1001.000305 1.000210,501.000580 1.000105,1.000650 
	C667.666199,1.000433 1334.332397,1.000433 2000.998901,1.000217 
	C2000.999268,500.999359 2000.999268,1000.998718 2000.999634,1500.999023 
	C1803.500000,1501.000000 1606.000000,1501.000000 1408.000000,1501.000000 
M1243.093262,282.608185 
	C1206.381714,282.577332 1169.670166,282.543884 1132.958618,282.529572 
	C1131.975098,282.529175 1130.991577,282.735687 1129.096191,282.602020 
	C1091.716675,282.573486 1054.337036,282.542358 1016.957520,282.530457 
	C1015.974426,282.530151 1014.991211,282.738800 1013.097107,282.603699 
	C970.383667,282.575531 927.670166,282.545105 884.956726,282.533173 
	C883.973267,282.532898 882.989807,282.741089 881.096436,282.602386 
	C840.716431,282.571442 800.336426,282.538086 759.956421,282.524017 
	C758.974182,282.523682 757.991821,282.738068 756.099792,282.600433 
	C689.053528,282.567505 622.007324,282.533142 554.961060,282.515747 
	C553.977417,282.515503 552.993774,282.726685 551.101135,282.584869 
	C524.033630,282.584869 496.966095,282.584869 469.921967,282.584869 
	C469.921967,594.889404 469.921967,906.444092 469.921967,1218.487183 
	C471.973633,1218.487183 473.766174,1218.487549 475.558716,1218.487061 
	C499.388885,1218.480591 523.219116,1218.497437 547.049255,1218.453491 
	C554.369568,1218.440063 561.689575,1218.260742 569.909424,1218.438843 
	C616.289734,1218.444580 662.670105,1218.452393 709.050415,1218.443481 
	C710.036011,1218.443359 711.021545,1218.251343 712.908936,1218.423706 
	C753.122437,1218.433960 793.335999,1218.446045 833.549500,1218.442017 
	C834.368835,1218.442017 835.188171,1218.254150 836.910095,1218.426514 
	C878.123230,1218.437012 919.336426,1218.449219 960.549561,1218.445435 
	C961.369080,1218.445435 962.188599,1218.257568 963.911621,1218.425537 
	C1001.790466,1218.436646 1039.669312,1218.449585 1077.548096,1218.445923 
	C1078.367065,1218.445801 1079.185913,1218.253784 1080.910278,1218.414551 
	C1115.630371,1218.426147 1150.350342,1218.445190 1185.070435,1218.436279 
	C1188.049927,1218.435425 1191.029297,1218.248291 1194.912964,1218.414062 
	C1228.949219,1218.427734 1262.985352,1218.450317 1297.021606,1218.441772 
	C1300.663940,1218.440796 1304.306152,1218.257446 1308.719116,1218.438110 
	C1340.999512,1218.438110 1373.279907,1218.438110 1405.685425,1218.438110 
	C1405.685425,1166.163818 1405.685425,1114.434326 1405.685425,1062.464355 
	C1388.199707,1062.464355 1370.991577,1062.464355 1353.100464,1062.464355 
	C1353.100464,1097.138306 1353.100464,1131.486084 1353.100464,1166.246094 
	C1337.609131,1166.246094 1322.800537,1166.246094 1307.066528,1166.095215 
	C1293.947021,1166.084106 1280.827515,1166.045410 1267.708008,1166.067871 
	C1243.134766,1166.109985 1218.561401,1166.187622 1193.063477,1166.098755 
	C1181.605591,1166.088867 1170.147705,1166.054688 1158.689819,1166.073975 
	C1132.457764,1166.118164 1106.225586,1166.188477 1079.068848,1166.091431 
	C1064.453247,1166.082031 1049.837769,1166.045410 1035.222168,1166.069336 
	C1011.144775,1166.108887 987.067444,1166.187378 962.065552,1166.094238 
	C940.801575,1166.082642 919.537598,1166.041504 898.273682,1166.067871 
	C877.513245,1166.093628 856.752991,1166.188354 835.068054,1166.095459 
	C814.635315,1166.085571 794.202515,1166.046875 773.769836,1166.073975 
	C753.176331,1166.101440 732.582886,1166.194336 711.065613,1166.099609 
	C678.325989,1166.087524 645.586365,1166.054443 612.846741,1166.072754 
	C598.227417,1166.080933 583.608093,1166.192383 568.065002,1166.097534 
	C552.806152,1166.097534 537.547302,1166.097534 522.291504,1166.097534 
	C522.291504,888.728271 522.291504,611.956482 522.291504,334.746277 
	C532.386780,334.746277 542.188049,334.746277 552.913635,334.920441 
	C619.944580,334.920715 686.975586,334.921753 754.006531,334.913727 
	C754.999939,334.913605 755.993347,334.799835 757.911377,334.914032 
	C772.198059,334.920929 786.484741,334.952698 800.771362,334.929413 
	C827.845276,334.885284 854.919128,334.809601 882.917358,334.917664 
	C901.691284,334.923309 920.465210,334.955200 939.239075,334.928131 
	C964.155945,334.892181 989.072815,334.810181 1014.914673,334.917847 
	C1023.882507,334.925659 1032.850342,334.954041 1041.818237,334.937592 
	C1071.208862,334.883667 1100.599487,334.813416 1130.915527,334.916046 
	C1138.388428,334.924927 1145.861450,334.953125 1153.334351,334.939240 
	C1183.554199,334.883209 1213.773926,334.814270 1244.919312,334.913635 
	C1274.276733,334.859650 1303.634277,334.805664 1333.916504,334.918396 
	C1340.198486,334.918396 1346.480469,334.918396 1353.403564,334.918396 
	C1353.403564,369.810516 1353.403564,404.162170 1353.403564,438.451874 
	C1371.272705,438.451874 1388.487061,438.451874 1405.615723,438.451874 
	C1405.615723,386.336548 1405.615723,334.639526 1405.615723,282.498596 
	C1396.973389,282.498596 1388.669678,282.459351 1380.366577,282.506927 
	C1364.562256,282.597473 1348.758301,282.737701 1332.047363,282.623627 
	C1311.478760,282.592712 1290.910156,282.526611 1270.341553,282.547394 
	C1261.562256,282.556274 1252.783203,282.746460 1243.093262,282.608185 
M1202.281372,521.653015 
	C1207.795288,523.945190 1213.499512,525.869080 1218.786743,528.600098 
	C1233.465820,536.182312 1239.699951,548.959229 1237.586182,565.360901 
	C1235.846313,578.860229 1230.453369,590.850342 1221.341064,600.598694 
	C1209.784424,612.961853 1197.204102,624.368042 1184.427979,636.379395 
	C1156.555420,657.975769 1126.945190,676.835205 1094.325806,690.327393 
	C1072.230713,699.466553 1049.462036,706.977417 1026.249023,715.238770 
	C985.745972,728.328247 944.438416,737.785339 902.262695,743.322266 
	C901.964905,742.901001 901.667114,742.479797 901.369324,742.058533 
	C942.978088,694.995850 984.586914,647.933105 1026.723755,600.273193 
	C1022.902161,597.963623 1019.729736,595.416870 1016.115784,593.982788 
	C1006.093201,590.005615 996.021912,586.050964 985.722473,582.894470 
	C968.813538,577.712585 967.557373,577.897034 957.201233,591.995117 
	C942.432922,612.099854 928.028076,632.493652 914.123169,653.203857 
	C901.619751,671.826538 889.999756,691.042297 877.426208,710.373108 
	C852.164124,751.676941 826.851562,792.949890 801.654541,834.293335 
	C777.336060,874.195190 754.147888,914.756958 733.670715,956.764160 
	C726.642334,971.182251 721.599060,986.599670 716.236267,1001.768188 
	C715.286682,1004.454041 716.147095,1009.405273 718.097107,1011.116638 
	C721.156189,1013.801453 725.392883,1011.992188 728.405518,1009.212524 
	C729.843384,1007.885986 731.013550,1006.195251 732.035522,1004.506409 
	C734.529541,1000.385010 736.887329,996.180420 739.263306,991.988464 
	C754.261108,965.527527 769.627808,939.266907 784.143005,912.543762 
	C801.987000,879.692139 819.695618,846.850708 842.824463,817.223938 
	C853.744751,803.235718 865.052551,789.888733 880.718506,779.939697 
	C882.576233,778.839600 884.411560,777.699280 886.295166,776.645386 
	C910.189697,763.276611 936.228088,756.062256 962.702759,750.145325 
	C971.037781,748.282532 979.367004,746.024841 987.823181,745.151611 
	C1004.491333,743.430603 1021.246460,742.551270 1038.878052,741.567993 
	C1055.881714,743.065979 1073.015015,743.708679 1089.859253,746.259521 
	C1116.004883,750.218994 1140.203003,759.301331 1160.030151,778.723267 
	C1163.719604,786.062927 1168.829346,793.038086 1170.824463,800.812561 
	C1176.186646,821.708130 1173.026245,842.302307 1165.489624,862.289490 
	C1159.096558,879.243958 1147.968628,893.002502 1135.155396,906.221497 
	C1134.779053,906.696472 1134.402832,907.171448 1133.481445,907.905029 
	C1131.227051,910.076965 1128.972656,912.248901 1126.113281,914.761047 
	C1106.329956,932.403442 1083.881958,945.842163 1059.933960,956.981812 
	C1034.848511,968.650574 1008.782349,977.453796 981.215576,984.223022 
	C963.302368,987.437500 945.508850,991.984558 927.452576,993.605591 
	C881.334595,997.745911 835.663574,993.868286 790.760986,982.223816 
	C782.883606,980.180969 775.161926,977.527527 767.262024,975.589355 
	C765.587463,975.178467 762.555359,976.125854 761.775818,977.424316 
	C761.005737,978.707153 761.994873,981.358826 762.784485,983.159058 
	C763.339600,984.424561 764.827332,985.298279 765.942200,986.298462 
	C783.125916,1001.713562 802.457092,1013.813904 824.393433,1020.877747 
	C875.693481,1037.397217 928.267639,1043.291016 982.829956,1037.834839 
	C1006.823547,1035.231567 1030.459839,1030.780029 1053.608398,1023.913452 
	C1079.947754,1016.100403 1105.276367,1005.874512 1129.681885,991.796143 
	C1168.507568,970.115356 1200.291138,940.958191 1223.456055,902.826294 
	C1237.602905,879.539246 1246.872314,854.765320 1245.036255,826.850830 
	C1243.965698,810.574951 1240.000122,795.262512 1229.677246,782.318787 
	C1212.676147,761.001465 1189.970581,748.473083 1163.665527,740.388611 
	C1122.647827,727.401184 1080.596924,724.934875 1037.340332,727.873962 
	C1036.894043,727.932373 1036.447754,727.990723 1035.426880,727.839417 
	C1035.187500,727.672180 1034.935547,727.518799 1034.720825,727.324341 
	C1034.684570,727.291504 1034.775635,727.001343 1034.862793,726.966064 
	C1036.544189,726.286743 1038.208252,725.551147 1039.925659,724.976196 
	C1064.812012,716.644348 1090.115234,709.369568 1114.482422,699.728088 
	C1138.824097,690.096680 1162.230835,678.101868 1186.761475,667.030273 
	C1213.705078,653.119385 1238.512329,636.279419 1259.338257,614.001343 
	C1275.302002,596.924316 1285.509155,577.262817 1286.383057,553.437256 
	C1287.422485,525.093628 1277.552246,502.501862 1252.419067,487.515625 
	C1236.975708,478.307190 1220.659180,471.653229 1202.201782,468.033691 
	C1191.545410,466.368439 1180.935303,464.276367 1170.224243,463.115662 
	C1133.962524,459.186066 1097.916626,461.963196 1061.190063,467.257751 
	C1056.759521,468.006531 1052.293701,468.590027 1047.904053,469.529663 
	C1003.509216,479.032593 959.094910,488.447998 914.753235,498.193634 
	C888.369568,503.992371 876.328979,520.483521 879.954529,544.865845 
	C882.166748,559.743469 892.581116,568.172485 907.552002,566.840210 
	C911.657166,566.474915 915.743530,565.398193 919.728821,564.262817 
	C967.505798,550.651428 1015.262207,536.967468 1063.897095,523.329407 
	C1065.379272,523.108459 1066.866211,522.915527 1068.342896,522.662476 
	C1112.732300,515.053833 1157.163330,511.162292 1202.281372,521.653015 
z"/>
<path fill="#FEF52E" opacity="1.000000" stroke="none" 
	d="
M569.009766,1218.157471 
	C561.689575,1218.260742 554.369568,1218.440063 547.049255,1218.453491 
	C523.219116,1218.497437 499.388885,1218.480591 475.558716,1218.487061 
	C473.766174,1218.487549 471.973633,1218.487183 469.921967,1218.487183 
	C469.921967,906.444092 469.921967,594.889404 469.921967,282.584869 
	C496.966095,282.584869 524.033630,282.584869 551.553833,283.191284 
	C552.000793,300.780579 551.995056,317.763428 551.989319,334.746277 
	C542.188049,334.746277 532.386780,334.746277 522.291504,334.746277 
	C522.291504,611.956482 522.291504,888.728271 522.291504,1166.097534 
	C537.547302,1166.097534 552.806152,1166.097534 568.526855,1166.629639 
	C568.995728,1184.160278 569.002747,1201.158813 569.009766,1218.157471 
z"/>
<path fill="#EAC92B" opacity="1.000000" stroke="none" 
	d="
M1164.198120,740.905762 
	C1189.970581,748.473083 1212.676147,761.001465 1229.677246,782.318787 
	C1240.000122,795.262512 1243.965698,810.574951 1245.036255,826.850830 
	C1246.872314,854.765320 1237.602905,879.539246 1223.456055,902.826294 
	C1200.291138,940.958191 1168.507568,970.115356 1129.341431,991.457947 
	C1130.075073,989.435608 1131.004150,987.633972 1132.253784,986.092163 
	C1134.755859,983.005127 1140.163940,982.897766 1140.098022,977.020752 
	C1139.848633,954.792542 1139.954102,932.559814 1140.045044,910.329224 
	C1140.058350,907.123291 1138.960327,905.650208 1135.723389,905.985779 
	C1147.968628,893.002502 1159.096558,879.243958 1165.489624,862.289490 
	C1173.026245,842.302307 1176.186646,821.708130 1170.824463,800.812561 
	C1168.829346,793.038086 1163.719604,786.062927 1160.301270,778.266663 
	C1161.048218,776.161377 1161.900635,774.520386 1161.934814,772.862610 
	C1162.085571,765.550354 1161.777466,758.223389 1162.100342,750.922302 
	C1162.249023,747.559082 1163.465698,744.243164 1164.198120,740.905762 
z"/>
<path fill="#EFD52C" opacity="1.000000" stroke="none" 
	d="
M877.990112,709.996460 
	C889.999756,691.042297 901.619751,671.826538 914.123169,653.203857 
	C928.028076,632.493652 942.432922,612.099854 957.201233,591.995117 
	C967.557373,577.897034 968.813538,577.712585 985.722473,582.894470 
	C996.021912,586.050964 1006.093201,590.005615 1016.115784,593.982788 
	C1019.729736,595.416870 1022.902161,597.963623 1026.723755,600.273193 
	C984.586914,647.933105 942.978088,694.995850 901.369324,742.058533 
	C901.667114,742.479797 901.964905,742.901001 902.262695,743.322266 
	C944.438416,737.785339 985.745972,728.328247 1026.708862,715.578613 
	C1030.510620,716.575500 1033.852539,717.232544 1037.989014,718.045837 
	C1037.500122,718.751831 1036.852783,720.200195 1035.763062,721.130432 
	C1034.395386,722.298096 1032.356201,722.760254 1031.182983,724.050720 
	C1030.117310,725.222839 1029.460083,727.073792 1029.359131,728.671997 
	C1029.315430,729.362549 1031.351440,730.959839 1032.044922,730.760681 
	C1033.503052,730.341736 1034.698364,729.007629 1036.001465,728.049133 
	C1036.447754,727.990723 1036.894043,727.932373 1037.670166,728.418457 
	C1037.988525,733.083252 1037.977051,737.203552 1037.965576,741.323853 
	C1021.246460,742.551270 1004.491333,743.430603 987.823181,745.151611 
	C979.367004,746.024841 971.037781,748.282532 962.702759,750.145325 
	C936.228088,756.062256 910.189697,763.276611 886.295166,776.645386 
	C884.411560,777.699280 882.576233,778.839600 880.364868,779.534546 
	C880.007507,758.164795 880.060120,737.199707 879.912170,716.236145 
	C879.897461,714.151794 878.660034,712.076172 877.990112,709.996460 
z"/>
<path fill="#EED32B" opacity="1.000000" stroke="none" 
	d="
M1063.023926,523.302490 
	C1015.262207,536.967468 967.505798,550.651428 919.728821,564.262817 
	C915.743530,565.398193 911.657166,566.474915 907.552002,566.840210 
	C892.581116,568.172485 882.166748,559.743469 879.954529,544.865845 
	C876.328979,520.483521 888.369568,503.992371 914.753235,498.193634 
	C959.094910,488.447998 1003.509216,479.032593 1047.904053,469.529663 
	C1052.293701,468.590027 1056.759521,468.006531 1061.678589,467.671326 
	C1062.444824,470.207062 1062.953247,472.328156 1062.963013,474.451569 
	C1063.037842,490.734924 1063.015869,507.018799 1063.023926,523.302490 
z"/>
<path fill="#DDB129" opacity="1.000000" stroke="none" 
	d="
M1307.992065,1166.246094 
	C1322.800537,1166.246094 1337.609131,1166.246094 1353.100464,1166.246094 
	C1353.100464,1131.486084 1353.100464,1097.138306 1353.100464,1062.464355 
	C1370.991577,1062.464355 1388.199707,1062.464355 1405.685425,1062.464355 
	C1405.685425,1114.434326 1405.685425,1166.163818 1405.685425,1218.438110 
	C1373.279907,1218.438110 1340.999512,1218.438110 1308.346802,1217.819458 
	C1307.980347,1200.215942 1307.986206,1183.230957 1307.992065,1166.246094 
z"/>
<path fill="#F9E92D" opacity="1.000000" stroke="none" 
	d="
M552.451477,334.833374 
	C551.995056,317.763428 552.000793,300.780579 552.008301,283.318451 
	C552.993774,282.726685 553.977417,282.515503 554.961060,282.515747 
	C622.007324,282.533142 689.053528,282.567505 756.551514,283.204834 
	C756.997681,300.785858 756.992188,317.762482 756.986755,334.739075 
	C755.993347,334.799835 754.999939,334.913605 754.006531,334.913727 
	C686.975586,334.921753 619.944580,334.920715 552.451477,334.833374 
z"/>
<path fill="#EDCF2B" opacity="1.000000" stroke="none" 
	d="
M1135.439453,906.103638 
	C1138.960327,905.650208 1140.058350,907.123291 1140.045044,910.329224 
	C1139.954102,932.559814 1139.848633,954.792542 1140.098022,977.020752 
	C1140.163940,982.897766 1134.755859,983.005127 1132.253784,986.092163 
	C1131.004150,987.633972 1130.075073,989.435608 1128.997925,991.498535 
	C1105.276367,1005.874512 1079.947754,1016.100403 1053.608398,1023.913452 
	C1030.459839,1030.780029 1006.823547,1035.231567 982.499268,1037.389404 
	C982.111511,1019.372742 982.054321,1001.801453 981.997131,984.230225 
	C1008.782349,977.453796 1034.848511,968.650574 1059.933960,956.981812 
	C1083.881958,945.842163 1106.329956,932.403442 1126.659058,914.904785 
	C1129.297729,914.624756 1131.983154,914.834412 1133.310669,913.592468 
	C1134.547607,912.435303 1137.424438,910.006958 1134.026489,907.646423 
	C1134.402832,907.171448 1134.779053,906.696472 1135.439453,906.103638 
z"/>
<path fill="#E8C62B" opacity="1.000000" stroke="none" 
	d="
M1202.996582,468.306519 
	C1220.659180,471.653229 1236.975708,478.307190 1252.419067,487.515625 
	C1277.552246,502.501862 1287.422485,525.093628 1286.383057,553.437256 
	C1285.509155,577.262817 1275.302002,596.924316 1259.338257,614.001343 
	C1238.512329,636.279419 1213.705078,653.119385 1186.392822,666.608887 
	C1186.016113,661.737976 1186.123169,657.284546 1185.970825,652.839966 
	C1185.780518,647.285095 1185.376831,641.737610 1185.065308,636.186890 
	C1197.204102,624.368042 1209.784424,612.961853 1221.341064,600.598694 
	C1230.453369,590.850342 1235.846313,578.860229 1237.586182,565.360901 
	C1239.699951,548.959229 1233.465820,536.182312 1218.786743,528.600098 
	C1213.499512,525.869080 1207.795288,523.945190 1202.308350,521.081909 
	C1202.557007,518.558594 1202.964111,516.606995 1202.970581,514.654114 
	C1203.022339,499.205078 1202.997681,483.755768 1202.996582,468.306519 
z"/>
<path fill="#DDB129" opacity="1.000000" stroke="none" 
	d="
M1332.954102,282.857239 
	C1348.758301,282.737701 1364.562256,282.597473 1380.366577,282.506927 
	C1388.669678,282.459351 1396.973389,282.498596 1405.615723,282.498596 
	C1405.615723,334.639526 1405.615723,386.336548 1405.615723,438.451874 
	C1388.487061,438.451874 1371.272705,438.451874 1353.403564,438.451874 
	C1353.403564,404.162170 1353.403564,369.810516 1353.403564,334.918396 
	C1346.480469,334.918396 1340.198486,334.918396 1333.453857,334.382385 
	C1332.979004,316.850006 1332.966553,299.853638 1332.954102,282.857239 
z"/>
<path fill="#EFD52C" opacity="1.000000" stroke="none" 
	d="
M981.606323,984.226624 
	C982.054321,1001.801453 982.111511,1019.372742 982.083008,1037.335938 
	C928.267639,1043.291016 875.693481,1037.397217 824.393433,1020.877747 
	C802.457092,1013.813904 783.125916,1001.713562 765.942200,986.298462 
	C764.827332,985.298279 763.339600,984.424561 762.784485,983.159058 
	C761.994873,981.358826 761.005737,978.707153 761.775818,977.424316 
	C762.555359,976.125854 765.587463,975.178467 767.262024,975.589355 
	C775.161926,977.527527 782.883606,980.180969 790.760986,982.223816 
	C835.663574,993.868286 881.334595,997.745911 927.452576,993.605591 
	C945.508850,991.984558 963.302368,987.437500 981.606323,984.226624 
z"/>
<path fill="#F3DC2C" opacity="1.000000" stroke="none" 
	d="
M877.708130,710.184814 
	C878.660034,712.076172 879.897461,714.151794 879.912170,716.236145 
	C880.060120,737.199707 880.007507,758.164795 880.018066,779.602905 
	C865.052551,789.888733 853.744751,803.235718 842.824463,817.223938 
	C819.695618,846.850708 801.987000,879.692139 784.143005,912.543762 
	C769.627808,939.266907 754.261108,965.527527 739.263306,991.988464 
	C736.887329,996.180420 734.529541,1000.385010 732.035522,1004.506409 
	C731.013550,1006.195251 729.843384,1007.885986 728.405518,1009.212524 
	C725.392883,1011.992188 721.156189,1013.801453 718.097107,1011.116638 
	C716.147095,1009.405273 715.286682,1004.454041 716.236267,1001.768188 
	C721.599060,986.599670 726.642334,971.182251 733.670715,956.764160 
	C754.147888,914.756958 777.336060,874.195190 801.654541,834.293335 
	C826.851562,792.949890 852.164124,751.676941 877.708130,710.184814 
z"/>
<path fill="#EBCC2B" opacity="1.000000" stroke="none" 
	d="
M1202.599121,468.170105 
	C1202.997681,483.755768 1203.022339,499.205078 1202.970581,514.654114 
	C1202.964111,516.606995 1202.557007,518.558594 1202.043945,520.828003 
	C1157.163330,511.162292 1112.732300,515.053833 1068.342896,522.662476 
	C1066.866211,522.915527 1065.379272,523.108459 1063.460449,523.315918 
	C1063.015869,507.018799 1063.037842,490.734924 1062.963013,474.451569 
	C1062.953247,472.328156 1062.444824,470.207062 1062.078857,467.695618 
	C1097.916626,461.963196 1133.962524,459.186066 1170.224243,463.115662 
	C1180.935303,464.276367 1191.545410,466.368439 1202.599121,468.170105 
z"/>
<path fill="#F9E92D" opacity="1.000000" stroke="none" 
	d="
M569.459595,1218.298096 
	C569.002747,1201.158813 568.995728,1184.160278 568.988770,1166.709229 
	C583.608093,1166.192383 598.227417,1166.080933 612.846741,1166.072754 
	C645.586365,1166.054443 678.325989,1166.087524 711.527710,1166.631348 
	C711.995605,1184.158203 712.001343,1201.153564 712.007141,1218.148804 
	C711.021545,1218.251343 710.036011,1218.443359 709.050415,1218.443481 
	C662.670105,1218.452393 616.289734,1218.444580 569.459595,1218.298096 
z"/>
<path fill="#EED32B" opacity="1.000000" stroke="none" 
	d="
M882.006348,282.852020 
	C882.989807,282.741089 883.973267,282.532898 884.956726,282.533173 
	C927.670166,282.545105 970.383667,282.575531 1013.550354,283.205597 
	C1013.998962,300.787659 1013.994324,317.767822 1013.989685,334.747986 
	C989.072815,334.810181 964.155945,334.892181 939.239075,334.928131 
	C920.465210,334.955200 901.691284,334.923309 882.454712,334.379883 
	C881.996826,316.845398 882.001587,299.848724 882.006348,282.852020 
z"/>
<path fill="#EFD52C" opacity="1.000000" stroke="none" 
	d="
M835.992615,1166.252808 
	C856.752991,1166.188354 877.513245,1166.093628 898.273682,1166.067871 
	C919.537598,1166.041504 940.801575,1166.082642 962.528503,1166.624512 
	C962.997009,1184.155640 963.002563,1201.156494 963.008057,1218.157349 
	C962.188599,1218.257568 961.369080,1218.445435 960.549561,1218.445435 
	C919.336426,1218.449219 878.123230,1218.437012 836.457031,1217.811279 
	C836.000244,1200.214844 835.996399,1183.233887 835.992615,1166.252808 
z"/>
<path fill="#F3DC2C" opacity="1.000000" stroke="none" 
	d="
M881.551392,282.727203 
	C882.001587,299.848724 881.996826,316.845398 881.992554,334.294556 
	C854.919128,334.809601 827.845276,334.885284 800.771362,334.929413 
	C786.484741,334.952698 772.198059,334.920929 757.449097,334.826538 
	C756.992188,317.762482 756.997681,300.785858 757.006348,283.330780 
	C757.991821,282.738068 758.974182,282.523682 759.956421,282.524017 
	C800.336426,282.538086 840.716431,282.571442 881.551392,282.727203 
z"/>
<path fill="#F4DF2C" opacity="1.000000" stroke="none" 
	d="
M835.530334,1166.174072 
	C835.996399,1183.233887 836.000244,1200.214844 836.005737,1217.674805 
	C835.188171,1218.254150 834.368835,1218.442017 833.549500,1218.442017 
	C793.335999,1218.446045 753.122437,1218.433960 712.458008,1218.286255 
	C712.001343,1201.153564 711.995605,1184.158203 711.989624,1166.710815 
	C732.582886,1166.194336 753.176331,1166.101440 773.769836,1166.073975 
	C794.202515,1166.046875 814.635315,1166.085571 835.530334,1166.174072 
z"/>
<path fill="#EBCC2B" opacity="1.000000" stroke="none" 
	d="
M963.459839,1218.291504 
	C963.002563,1201.156494 962.997009,1184.155640 962.990723,1166.702148 
	C987.067444,1166.187378 1011.144775,1166.108887 1035.222168,1166.069336 
	C1049.837769,1166.045410 1064.453247,1166.082031 1079.531616,1166.622559 
	C1079.997925,1184.152832 1080.001465,1201.152100 1080.004883,1218.151367 
	C1079.185913,1218.253784 1078.367065,1218.445801 1077.548096,1218.445923 
	C1039.669312,1218.449585 1001.790466,1218.436646 963.459839,1218.291504 
z"/>
<path fill="#EAC92B" opacity="1.000000" stroke="none" 
	d="
M1014.452148,334.832916 
	C1013.994324,317.767822 1013.998962,300.787659 1014.005859,283.328735 
	C1014.991211,282.738800 1015.974426,282.530151 1016.957520,282.530457 
	C1054.337036,282.542358 1091.716675,282.573486 1129.549805,283.202942 
	C1129.998901,300.785736 1129.994507,317.767609 1129.990112,334.749451 
	C1100.599487,334.813416 1071.208862,334.883667 1041.818237,334.937592 
	C1032.850342,334.954041 1023.882507,334.925659 1014.452148,334.832916 
z"/>
<path fill="#E8C62B" opacity="1.000000" stroke="none" 
	d="
M1080.457520,1218.282959 
	C1080.001465,1201.152100 1079.997925,1184.152832 1079.993896,1166.700928 
	C1106.225586,1166.188477 1132.457764,1166.118164 1158.689819,1166.073975 
	C1170.147705,1166.054688 1181.605591,1166.088867 1193.526367,1166.627197 
	C1193.995728,1184.152954 1194.002197,1201.150269 1194.008789,1218.147705 
	C1191.029297,1218.248291 1188.049927,1218.435425 1185.070435,1218.436279 
	C1150.350342,1218.445190 1115.630371,1218.426147 1080.457520,1218.282959 
z"/>
<path fill="#E3BA2A" opacity="1.000000" stroke="none" 
	d="
M1194.460938,1218.280884 
	C1194.002197,1201.150269 1193.995728,1184.152954 1193.988770,1166.702881 
	C1218.561401,1166.187622 1243.134766,1166.109985 1267.708008,1166.067871 
	C1280.827515,1166.045410 1293.947021,1166.084106 1307.529297,1166.170654 
	C1307.986206,1183.230957 1307.980347,1200.215942 1307.961426,1217.679688 
	C1304.306152,1218.257446 1300.663940,1218.440796 1297.021606,1218.441772 
	C1262.985352,1218.450317 1228.949219,1218.427734 1194.460938,1218.280884 
z"/>
<path fill="#E6BF2A" opacity="1.000000" stroke="none" 
	d="
M1130.452881,334.832764 
	C1129.994507,317.767609 1129.998901,300.785736 1130.005737,283.324799 
	C1130.991577,282.735687 1131.975098,282.529175 1132.958618,282.529572 
	C1169.670166,282.543884 1206.381714,282.577332 1243.547119,283.209808 
	C1243.998535,300.790985 1243.996094,317.770538 1243.993774,334.750092 
	C1213.773926,334.814270 1183.554199,334.883209 1153.334351,334.939240 
	C1145.861450,334.953125 1138.388428,334.924927 1130.452881,334.832764 
z"/>
<path fill="#E3BA2A" opacity="1.000000" stroke="none" 
	d="
M1244.456543,334.831848 
	C1243.996094,317.770538 1243.998535,300.790985 1244.002441,283.332855 
	C1252.783203,282.746460 1261.562256,282.556274 1270.341553,282.547394 
	C1290.910156,282.526611 1311.478760,282.592712 1332.500732,282.740448 
	C1332.966553,299.853638 1332.979004,316.850006 1332.991455,334.299011 
	C1303.634277,334.805664 1274.276733,334.859650 1244.456543,334.831848 
z"/>
<path fill="#EBCC2B" opacity="1.000000" stroke="none" 
	d="
M1184.746582,636.283142 
	C1185.376831,641.737610 1185.780518,647.285095 1185.970825,652.839966 
	C1186.123169,657.284546 1186.016113,661.737976 1186.035767,666.665283 
	C1162.230835,678.101868 1138.824097,690.096680 1114.482422,699.728088 
	C1090.115234,709.369568 1064.812012,716.644348 1039.925659,724.976196 
	C1038.208252,725.551147 1036.544189,726.286743 1034.862793,726.966064 
	C1034.775635,727.001343 1034.684570,727.291504 1034.720825,727.324341 
	C1034.935547,727.518799 1035.187500,727.672180 1035.714111,727.944275 
	C1034.698364,729.007629 1033.503052,730.341736 1032.044922,730.760681 
	C1031.351440,730.959839 1029.315430,729.362549 1029.359131,728.671997 
	C1029.460083,727.073792 1030.117310,725.222839 1031.182983,724.050720 
	C1032.356201,722.760254 1034.395386,722.298096 1035.763062,721.130432 
	C1036.852783,720.200195 1037.500122,718.751831 1037.989014,718.045837 
	C1033.852539,717.232544 1030.510620,716.575500 1027.081787,715.567505 
	C1049.462036,706.977417 1072.230713,699.466553 1094.325806,690.327393 
	C1126.945190,676.835205 1156.555420,657.975769 1184.746582,636.283142 
z"/>
<path fill="#EBCC2B" opacity="1.000000" stroke="none" 
	d="
M1038.421875,741.445923 
	C1037.977051,737.203552 1037.988525,733.083252 1037.999023,728.505981 
	C1080.596924,724.934875 1122.647827,727.401184 1163.931885,740.647217 
	C1163.465698,744.243164 1162.249023,747.559082 1162.100342,750.922302 
	C1161.777466,758.223389 1162.085571,765.550354 1161.934814,772.862610 
	C1161.900635,774.520386 1161.048218,776.161377 1160.183838,777.941528 
	C1140.203003,759.301331 1116.004883,750.218994 1089.859253,746.259521 
	C1073.015015,743.708679 1055.881714,743.065979 1038.421875,741.445923 
z"/>
<path fill="#EAC92B" opacity="1.000000" stroke="none" 
	d="
M1133.753906,907.775757 
	C1137.424438,910.006958 1134.547607,912.435303 1133.310669,913.592468 
	C1131.983154,914.834412 1129.297729,914.624756 1126.961548,914.734680 
	C1128.972656,912.248901 1131.227051,910.076965 1133.753906,907.775757 
z"/>
</svg>